<?xml version="1.0" encoding="utf-8"?><svg viewBox="0 0 60 60" xmlns="http://www.w3.org/2000/svg" xmlns:xlink="http://www.w3.org/1999/xlink"><style>:root>svg{display:none}:root>svg:target{display:block}</style><svg fill="none" viewBox="0 0 60 60" id="icon-arrow" xmlns="http://www.w3.org/2000/svg"><rect width="59" height="59" x=".5" y=".5" stroke="#665F55" rx="29.5"/><path stroke="#403F3D" stroke-linecap="round" stroke-linejoin="round" d="M24 30h12.5m0 0-6-6m6 6-6 6"/></svg><svg fill="none" viewBox="0 0 60 60" id="icon-arrow-hover" xmlns="http://www.w3.org/2000/svg"><rect width="60" height="60" fill="#665F55" rx="30"/><path stroke="#E1D4C9" stroke-linecap="round" stroke-linejoin="round" d="M24 30h12.5m0 0-6-6m6 6-6 6"/></svg><svg fill="none" viewBox="0 0 20 20" id="icon-clock" xmlns="http://www.w3.org/2000/svg"><g stroke="#E1D4C9" stroke-linecap="round" stroke-linejoin="round" stroke-width="1.5" clip-path="url(#ca)"><path d="M10 5v5h5"/><path d="M10 18.333a8.333 8.333 0 1 0 0-16.666 8.333 8.333 0 0 0 0 16.666Z"/></g><defs><clipPath id="ca"><path fill="#fff" d="M0 0h20v20H0z"/></clipPath></defs></svg><svg fill="none" viewBox="0 0 20 20" id="icon-cup" xmlns="http://www.w3.org/2000/svg"><path stroke="#403F3D" stroke-linecap="round" stroke-linejoin="round" stroke-width="1.5" d="M14.166 9.767v1.9a5.833 5.833 0 0 1-11.667 0v-1.9a.6.6 0 0 1 .6-.6h10.467a.6.6 0 0 1 .6.6ZM10 7.5c0-.833.595-1.667 1.785-1.667v0a2.38 2.38 0 0 0 2.381-2.38v-.536M6.667 7.5v-.417a2.5 2.5 0 0 1 2.5-2.5v0c.92 0 1.667-.746 1.667-1.666V2.5"/><path stroke="#403F3D" stroke-linecap="round" stroke-linejoin="round" stroke-width="1.5" d="M13.334 9.167h2.083a2.083 2.083 0 0 1 0 4.166h-1.25"/></svg><svg fill="none" viewBox="0 0 60 60" id="icon-facebook" xmlns="http://www.w3.org/2000/svg"><rect width="59" height="59" x=".5" y=".5" stroke="#C1B6AD" rx="29.5"/><path stroke="#E1D4C9" stroke-linecap="round" stroke-linejoin="round" d="M35 20h-3a5 5 0 0 0-5 5v3h-3v4h3v8h4v-8h3l1-4h-4v-3a1 1 0 0 1 1-1h3v-4Z"/></svg><svg viewBox="0 0 60 60" id="icon-facebook-hover" xmlns="http://www.w3.org/2000/svg"><path fill="none" d="M-1-1h582v402H-1z"/><rect width="59" height="59" x=".5" y=".5" fill="#e1d4c9" stroke="#e1d4c9" rx="29.5"/><path fill="none" stroke="#403f3d" stroke-linecap="round" stroke-linejoin="round" d="M35 20h-3a5 5 0 0 0-5 5v3h-3v4h3v8h4v-8h3l1-4h-4v-3a1 1 0 0 1 1-1h3v-4z"/></svg><svg fill="none" viewBox="0 0 60 60" id="icon-instagram" xmlns="http://www.w3.org/2000/svg"><rect width="59" height="59" x=".5" y=".5" stroke="#C1B6AD" rx="29.5"/><path stroke="#E1D4C9" stroke-linecap="round" stroke-linejoin="round" d="M30 34a4 4 0 1 0 0-8 4 4 0 0 0 0 8Z"/><path stroke="#E1D4C9" d="M21 34v-8a5 5 0 0 1 5-5h8a5 5 0 0 1 5 5v8a5 5 0 0 1-5 5h-8a5 5 0 0 1-5-5Z"/><path stroke="#E1D4C9" stroke-linecap="round" stroke-linejoin="round" d="m35.5 24.51.01-.011"/></svg><svg fill="none" viewBox="0 0 60 60" id="icon-instagram-hover" xmlns="http://www.w3.org/2000/svg"><rect width="60" height="60" fill="#E1D4C9" rx="30"/><path stroke="#403F3D" stroke-linecap="round" stroke-linejoin="round" d="M30 34a4 4 0 1 0 0-8 4 4 0 0 0 0 8Z"/><path stroke="#403F3D" d="M21 34v-8a5 5 0 0 1 5-5h8a5 5 0 0 1 5 5v8a5 5 0 0 1-5 5h-8a5 5 0 0 1-5-5Z"/><path stroke="#403F3D" stroke-linecap="round" stroke-linejoin="round" d="m35.5 24.51.01-.011"/></svg><svg fill="none" viewBox="0 0 20 20" id="icon-pin" xmlns="http://www.w3.org/2000/svg"><path stroke="#E1D4C9" stroke-width="1.5" d="M16.667 8.333c0 3.682-6.666 10-6.666 10s-6.667-6.318-6.667-10a6.667 6.667 0 0 1 13.333 0Z"/><path fill="#E1D4C9" stroke="#E1D4C9" stroke-linecap="round" stroke-linejoin="round" stroke-width="1.5" d="M10 9.167A.833.833 0 1 0 10 7.5a.833.833 0 0 0 0 1.667Z"/></svg><svg fill="none" viewBox="0 0 60 60" id="icon-refresh" xmlns="http://www.w3.org/2000/svg"><rect width="59" height="59" x=".5" y=".5" stroke="#665F55" rx="29.5"/><path stroke="#403F3D" stroke-linecap="round" stroke-linejoin="round" d="M39.888 31.5C39.164 36.311 35.013 40 30 40c-5.523 0-10-4.477-10-10s4.477-10 10-10c4.1 0 7.625 2.468 9.168 6"/><path stroke="#403F3D" stroke-linecap="round" stroke-linejoin="round" d="M35 26h4.4a.6.6 0 0 0 .6-.6V21"/></svg><svg fill="none" viewBox="0 0 20 20" id="icon-tel" xmlns="http://www.w3.org/2000/svg"><path stroke="#E1D4C9" stroke-linecap="round" stroke-linejoin="round" stroke-width="1.5" d="m15.098 12.252-3.432.665c-2.318-1.164-3.75-2.5-4.583-4.584l.642-3.441-1.213-3.225H3.729c-1.127 0-2.014.933-1.828 2.045.398 2.373 1.471 6.327 4.349 9.205 3.023 3.023 7.316 4.415 9.888 5.012 1.161.27 2.195-.638 2.195-1.83v-2.615l-3.235-1.232Z"/></svg><svg fill="none" viewBox="0 0 60 60" id="icon-twitter" xmlns="http://www.w3.org/2000/svg"><rect width="59" height="59" x=".5" y=".5" stroke="#C1B6AD" rx="29.5"/><path stroke="#E1D4C9" stroke-linecap="round" stroke-linejoin="round" d="M41 21.01s-2.018 1.192-3.14 1.53a4.48 4.48 0 0 0-7.86 3v1a10.66 10.66 0 0 1-9-4.53s-4 9 5 13a11.64 11.64 0 0 1-7 2c9 5 20 0 20-11.5 0-.279-.028-.556-.08-.83 1.02-1.006 2.08-3.67 2.08-3.67Z"/></svg><svg viewBox="0 0 60 60" id="icon-twitter-hover" xmlns="http://www.w3.org/2000/svg"><path fill="none" d="M-1-1h582v402H-1z"/><rect width="59" height="59" x=".5" y=".5" fill="#e1d4c9" stroke="#e1d4c9" rx="29.5"/><path fill="#e1d4c9" stroke="#403f3d" stroke-linecap="round" stroke-linejoin="round" d="M41 21.01s-2.018 1.192-3.14 1.53a4.48 4.48 0 0 0-7.86 3v1a10.66 10.66 0 0 1-9-4.53s-4 9 5 13a11.64 11.64 0 0 1-7 2c9 5 20 0 20-11.5 0-.278-.028-.556-.08-.83 1.02-1.006 2.08-3.67 2.08-3.67z"/></svg></svg>