<svg xmlns="http://www.w3.org/2000/svg" width="200" height="64" fill="none"><rect width="200" height="64" fill="#665F55" rx="32"/><path fill="#E1D4C9" d="M46.706 32.63c-.037-3.998 3.358-5.943 3.513-6.033-1.922-2.733-4.902-3.107-5.95-3.137-2.502-.256-4.93 1.46-6.205 1.46-1.3 0-3.263-1.435-5.38-1.393-2.722.041-5.27 1.578-6.666 3.965-2.884 4.867-.733 12.019 2.029 15.953 1.382 1.926 2.997 4.077 5.11 4.002 2.068-.084 2.84-1.286 5.335-1.286 2.472 0 3.197 1.286 5.353 1.237 2.219-.035 3.616-1.935 4.95-3.879 1.596-2.208 2.237-4.383 2.263-4.494-.052-.018-4.31-1.602-4.352-6.394ZM42.635 20.873c1.112-1.356 1.873-3.201 1.661-5.073-1.61.07-3.622 1.085-4.781 2.412-1.026 1.168-1.942 3.084-1.705 4.885 1.808.131 3.664-.89 4.825-2.224ZM65.748 23h-1.406l2.56-7.273h1.626L71.093 23h-1.406l-1.942-5.781h-.057L65.748 23Zm.046-2.852h3.835v1.059h-3.835v-1.059Zm10.388-2.602L74.24 23h-1.42l-1.943-5.454h1.37l1.254 4.051h.057l1.257-4.052h1.367Zm2.303 5.564c-.346 0-.657-.061-.934-.185a1.524 1.524 0 0 1-.653-.554c-.159-.243-.238-.544-.238-.901 0-.308.056-.563.17-.764.114-.201.269-.362.465-.483.197-.12.418-.212.664-.273.249-.064.506-.11.771-.139.32-.033.579-.063.778-.089.199-.028.343-.07.433-.128.092-.059.138-.15.138-.273V19.3c0-.268-.079-.475-.237-.622-.16-.146-.388-.22-.686-.22-.315 0-.565.069-.75.206-.181.137-.305.3-.368.487l-1.2-.17c.094-.332.25-.61.468-.832a2.04 2.04 0 0 1 .799-.504c.315-.114.663-.17 1.044-.17.263 0 .524.03.785.092.26.061.498.163.714.305.215.14.388.33.518.572.133.241.199.543.199.905V23h-1.236v-.75h-.042a1.571 1.571 0 0 1-.33.427c-.14.13-.317.235-.53.316-.21.078-.458.117-.742.117Zm.334-.944c.258 0 .482-.051.671-.153a1.13 1.13 0 0 0 .437-.412 1.05 1.05 0 0 0 .156-.558v-.642a.605.605 0 0 1-.206.092 2.914 2.914 0 0 1-.32.075 9.89 9.89 0 0 1-.351.056l-.302.043a2.248 2.248 0 0 0-.515.128.855.855 0 0 0-.358.248.608.608 0 0 0-.132.405c0 .237.087.416.26.536.172.121.392.181.66.181Zm3.839.834v-5.454h1.285V23h-1.285Zm.646-6.229a.75.75 0 0 1-.526-.202.652.652 0 0 1-.22-.494c0-.194.073-.358.22-.493a.743.743 0 0 1 .526-.206c.206 0 .381.068.525.206.147.135.22.3.22.493a.653.653 0 0 1-.22.494.742.742 0 0 1-.525.202Zm3.246-1.044V23h-1.285v-7.273h1.285Zm2.892 7.383c-.346 0-.657-.061-.934-.185a1.524 1.524 0 0 1-.653-.554c-.159-.243-.238-.544-.238-.901 0-.308.057-.563.17-.764.114-.201.269-.362.465-.483.197-.12.418-.212.665-.273.248-.064.505-.11.77-.139.32-.033.579-.063.778-.089.199-.028.343-.07.433-.128.092-.059.139-.15.139-.273V19.3c0-.268-.08-.475-.238-.622-.16-.146-.388-.22-.686-.22-.315 0-.564.069-.75.206-.181.137-.305.3-.368.487l-1.2-.17c.094-.332.25-.61.468-.832a2.04 2.04 0 0 1 .8-.504c.314-.114.662-.17 1.043-.17.263 0 .525.03.785.092.26.061.498.163.714.305.215.14.388.33.518.572.133.241.199.543.199.905V23h-1.236v-.75h-.042a1.567 1.567 0 0 1-.86.743c-.21.078-.458.117-.742.117Zm.334-.944c.258 0 .482-.051.671-.153a1.13 1.13 0 0 0 .437-.412 1.05 1.05 0 0 0 .156-.558v-.642a.605.605 0 0 1-.206.092 2.92 2.92 0 0 1-.32.075c-.118.02-.235.04-.351.056l-.302.043a2.248 2.248 0 0 0-.515.128.856.856 0 0 0-.359.248.608.608 0 0 0-.13.405c0 .237.085.416.258.536.173.121.393.181.66.181ZM93.67 23v-7.273h1.286v2.72h.053c.066-.132.16-.273.28-.422.121-.152.285-.28.49-.387.207-.11.47-.164.79-.164.42 0 .8.108 1.14.324.34.213.61.529.809.948.201.416.302.928.302 1.534 0 .599-.099 1.108-.295 1.527-.197.419-.464.739-.803.959-.338.22-.722.33-1.15.33-.313 0-.572-.052-.778-.156a1.58 1.58 0 0 1-.497-.377 2.432 2.432 0 0 1-.288-.422h-.074V23H93.67Zm1.261-2.727c0 .352.05.661.15.927.101.265.247.472.436.621.192.147.424.22.696.22.284 0 .522-.076.714-.227.192-.154.336-.363.433-.629.1-.267.15-.571.15-.912 0-.339-.05-.64-.146-.902a1.356 1.356 0 0 0-.434-.618c-.191-.15-.43-.224-.717-.224a1.13 1.13 0 0 0-.7.217 1.332 1.332 0 0 0-.436.607 2.63 2.63 0 0 0-.146.92Zm6.267-4.546V23h-1.286v-7.273h1.286Zm3.737 7.38c-.547 0-1.02-.114-1.417-.341-.396-.23-.7-.554-.913-.973-.213-.422-.32-.918-.32-1.488 0-.561.107-1.054.32-1.478a2.42 2.42 0 0 1 .902-.994c.386-.239.839-.359 1.36-.359.336 0 .654.055.952.164.301.106.566.272.795.497.232.225.415.511.547.86.133.345.199.757.199 1.235v.394h-4.471v-.866h3.239a1.392 1.392 0 0 0-.16-.657 1.16 1.16 0 0 0-.437-.458 1.225 1.225 0 0 0-.646-.167c-.263 0-.494.064-.693.192a1.333 1.333 0 0 0-.465.497 1.437 1.437 0 0 0-.167.67v.757c0 .318.058.59.174.817.116.225.279.398.487.519.208.118.452.177.731.177.187 0 .357-.026.508-.078.152-.055.283-.134.394-.238a.987.987 0 0 0 .253-.387l1.2.135c-.076.317-.22.594-.433.83a2.116 2.116 0 0 1-.81.548 3.104 3.104 0 0 1-1.129.192Zm8.372 0c-.532 0-.994-.118-1.385-.352a2.395 2.395 0 0 1-.909-.984c-.213-.421-.319-.913-.319-1.477 0-.563.106-1.057.319-1.48a2.39 2.39 0 0 1 .909-.988c.391-.234.853-.352 1.385-.352.533 0 .995.118 1.385.352.391.234.693.563.906.987.215.424.323.918.323 1.481 0 .564-.108 1.056-.323 1.477-.213.422-.515.75-.906.984-.39.234-.852.352-1.385.352Zm.007-1.03c.289 0 .531-.08.725-.238.194-.161.338-.377.433-.646.097-.27.146-.571.146-.902 0-.334-.049-.636-.146-.906a1.436 1.436 0 0 0-.433-.65 1.098 1.098 0 0 0-.725-.241c-.295 0-.542.08-.738.241-.194.161-.34.378-.437.65-.095.27-.142.572-.142.905 0 .332.047.633.142.902.097.27.243.486.437.647.196.158.443.238.738.238Zm4.984-2.273V23h-1.286v-5.454h1.229v.926h.064c.125-.305.325-.548.6-.728.277-.18.619-.27 1.026-.27.377 0 .704.08.984.242.281.16.499.394.653.7.156.305.233.675.231 1.111V23h-1.286v-3.274c0-.365-.094-.65-.284-.856-.187-.206-.446-.309-.777-.309-.225 0-.425.05-.6.15a1.039 1.039 0 0 0-.409.422 1.428 1.428 0 0 0-.145.671Zm10.012-2.258v.994h-3.136v-.994h3.136Zm-2.362-1.307h1.286v5.12c0 .173.026.306.078.398.055.09.126.152.213.185a.82.82 0 0 0 .291.05c.081 0 .154-.006.221-.018.068-.012.12-.023.156-.032l.216 1.005a2.431 2.431 0 0 1-.756.128c-.322.009-.612-.04-.87-.146a1.35 1.35 0 0 1-.614-.504c-.149-.228-.223-.512-.221-.853V16.24Zm4.84 3.565V23h-1.286v-7.273h1.257v2.745h.064c.128-.308.326-.55.593-.728.27-.18.614-.27 1.03-.27.379 0 .709.08.991.238.282.159.499.391.653.696.157.306.235.679.235 1.119V23h-1.286v-3.274c0-.367-.094-.652-.284-.856-.187-.206-.45-.309-.788-.309-.227 0-.431.05-.611.15a1.043 1.043 0 0 0-.419.422 1.404 1.404 0 0 0-.149.671Zm7.262 3.303c-.547 0-1.019-.114-1.417-.341-.395-.23-.7-.554-.913-.973-.213-.422-.319-.918-.319-1.488 0-.561.106-1.054.319-1.478a2.42 2.42 0 0 1 .902-.994c.386-.239.84-.359 1.36-.359.337 0 .654.055.952.164.301.106.566.272.796.497.232.225.414.511.546.86.133.345.199.757.199 1.235v.394h-4.471v-.866h3.239a1.38 1.38 0 0 0-.16-.657 1.16 1.16 0 0 0-.437-.458 1.225 1.225 0 0 0-.646-.167 1.25 1.25 0 0 0-.692.192 1.328 1.328 0 0 0-.466.497 1.436 1.436 0 0 0-.166.67v.757c0 .318.058.59.174.817.116.225.278.398.486.519.208.118.452.177.732.177.187 0 .356-.026.507-.078.152-.055.283-.134.395-.238a.996.996 0 0 0 .252-.387l1.2.135c-.076.317-.22.594-.433.83a2.116 2.116 0 0 1-.81.548 3.1 3.1 0 0 1-1.129.192ZM66.642 46h-2.25l4.097-11.636h2.602L75.193 46h-2.25l-3.108-9.25h-.09L66.641 46Zm.074-4.563h6.136v1.694h-6.136v-1.694Zm9.919 7.836v-12h2.023v1.443h.119c.106-.212.256-.438.449-.676a2.38 2.38 0 0 1 .784-.62c.33-.174.75-.26 1.261-.26.674 0 1.282.171 1.824.516.546.341.977.847 1.296 1.517.322.667.483 1.485.483 2.455 0 .958-.158 1.772-.472 2.443-.314.67-.742 1.182-1.284 1.534a3.302 3.302 0 0 1-1.841.528c-.5 0-.915-.083-1.244-.25a2.531 2.531 0 0 1-.796-.602 3.894 3.894 0 0 1-.46-.676h-.085v4.648h-2.057Zm2.017-7.637c0 .565.08 1.06.239 1.483.162.425.395.756.698.995.307.235.678.352 1.114.352.455 0 .835-.121 1.142-.364.307-.246.538-.581.693-1.005.16-.428.239-.915.239-1.46 0-.542-.078-1.023-.233-1.444-.155-.42-.386-.75-.693-.988-.307-.24-.69-.358-1.148-.358-.44 0-.812.115-1.12.346-.306.231-.539.555-.698.972-.155.416-.233.907-.233 1.471Zm7.983 7.637v-12h2.023v1.443h.119c.106-.212.256-.438.449-.676a2.38 2.38 0 0 1 .784-.62c.33-.174.75-.26 1.261-.26.674 0 1.282.171 1.824.516.546.341.977.847 1.296 1.517.322.667.483 1.485.483 2.455 0 .958-.158 1.772-.472 2.443-.314.67-.742 1.182-1.284 1.534a3.302 3.302 0 0 1-1.841.528c-.5 0-.915-.083-1.244-.25a2.531 2.531 0 0 1-.796-.602 3.894 3.894 0 0 1-.46-.676h-.085v4.648h-2.057Zm2.017-7.637c0 .565.08 1.06.239 1.483.162.425.395.756.698.995.307.235.678.352 1.114.352.455 0 .835-.121 1.142-.364.307-.246.538-.581.693-1.005.16-.428.239-.915.239-1.46 0-.542-.078-1.023-.233-1.444-.155-.42-.386-.75-.693-.988-.307-.24-.69-.358-1.148-.358-.44 0-.812.115-1.12.346-.306.231-.539.555-.698.972-.155.416-.233.907-.233 1.471Zm18.366-4.074c-.053-.496-.276-.882-.67-1.159-.39-.276-.898-.414-1.523-.414-.439 0-.816.066-1.13.199-.315.132-.555.312-.722.54a1.312 1.312 0 0 0-.256.778c0 .242.055.452.165.63.114.178.267.33.46.455.194.121.408.223.642.307.235.083.472.153.711.21l1.091.273c.439.102.861.24 1.267.414.409.175.774.394 1.096.66.326.265.583.585.773.96.189.375.284.814.284 1.318 0 .682-.174 1.282-.523 1.801-.348.515-.852.919-1.511 1.21-.655.288-1.449.432-2.381.432-.905 0-1.691-.14-2.358-.42-.663-.28-1.182-.69-1.557-1.228-.371-.538-.572-1.193-.602-1.965h2.074c.03.405.155.742.375 1.01.22.27.506.47.858.603.356.133.754.199 1.193.199.458 0 .86-.068 1.205-.205.348-.14.621-.333.818-.58a1.4 1.4 0 0 0 .301-.874c-.004-.303-.093-.553-.267-.75-.174-.2-.419-.367-.733-.5a7.057 7.057 0 0 0-1.091-.364l-1.324-.34c-.958-.247-1.716-.62-2.272-1.12-.554-.504-.83-1.172-.83-2.006 0-.685.186-1.286.557-1.8.375-.516.884-.916 1.528-1.2.644-.288 1.373-.431 2.188-.431.825 0 1.549.144 2.17.431.625.284 1.116.68 1.472 1.188.356.504.54 1.083.551 1.739h-2.029Zm8.334-.29v1.592h-5.017v-1.591h5.017Zm-3.778-2.09h2.057v8.193c0 .276.041.489.125.636a.67.67 0 0 0 .341.296c.14.053.295.08.465.08.129 0 .247-.01.353-.029.11-.019.193-.036.25-.051l.346 1.608c-.109.038-.267.08-.471.125a3.871 3.871 0 0 1-.739.08 3.355 3.355 0 0 1-1.392-.234 2.168 2.168 0 0 1-.983-.806c-.238-.364-.356-.819-.352-1.364v-8.534Zm9.212 10.988c-.853 0-1.591-.187-2.216-.562a3.823 3.823 0 0 1-1.455-1.574c-.341-.674-.511-1.462-.511-2.364 0-.901.17-1.69.511-2.369a3.815 3.815 0 0 1 1.455-1.58c.625-.374 1.363-.562 2.216-.562.852 0 1.59.188 2.215.563a3.775 3.775 0 0 1 1.449 1.58c.345.677.517 1.467.517 2.368 0 .902-.172 1.69-.517 2.364a3.783 3.783 0 0 1-1.449 1.574c-.625.375-1.363.563-2.215.563Zm.011-1.647c.462 0 .848-.127 1.159-.381.311-.258.542-.602.693-1.034.155-.432.233-.913.233-1.443 0-.534-.078-1.017-.233-1.45-.151-.435-.382-.781-.693-1.039-.311-.257-.697-.386-1.159-.386-.474 0-.868.129-1.182.386-.311.258-.544.604-.699 1.04a4.369 4.369 0 0 0-.227 1.449c0 .53.076 1.011.227 1.443.155.432.388.777.699 1.034.314.254.708.38 1.182.38ZM126.713 46v-8.727h1.994v1.454h.091c.159-.503.432-.892.818-1.164a2.256 2.256 0 0 1 1.336-.415c.113 0 .24.005.38.017.144.007.264.02.358.04v1.892a2.162 2.162 0 0 0-.414-.08 3.828 3.828 0 0 0-.54-.04c-.375 0-.712.082-1.012.245-.295.159-.528.38-.698.664a1.868 1.868 0 0 0-.256.983V46h-2.057Zm9.848.17c-.875 0-1.631-.181-2.267-.545a3.692 3.692 0 0 1-1.46-1.557c-.341-.674-.512-1.468-.512-2.38 0-.898.171-1.686.512-2.364a3.87 3.87 0 0 1 1.443-1.591c.617-.383 1.343-.574 2.176-.574.538 0 1.046.087 1.523.261.481.17.905.436 1.273.796.371.36.662.818.875 1.375.212.553.318 1.212.318 1.977v.63h-7.154v-1.386h5.182a2.211 2.211 0 0 0-.256-1.05 1.854 1.854 0 0 0-.698-.734 1.968 1.968 0 0 0-1.034-.267c-.421 0-.79.103-1.108.307-.319.2-.567.466-.745.796a2.295 2.295 0 0 0-.267 1.074v1.21c0 .507.093.943.279 1.306.185.36.445.637.778.83.333.19.724.284 1.17.284.3 0 .571-.041.813-.125.242-.087.453-.214.631-.38.178-.167.312-.374.403-.62l1.921.216c-.122.508-.353.95-.694 1.33a3.38 3.38 0 0 1-1.295.875c-.527.204-1.129.306-1.807.306Z"/></svg>