<svg xmlns="http://www.w3.org/2000/svg" width="200" height="64" fill="none"><rect width="199" height="63" x=".5" y=".5" stroke="#665F55" rx="31.5"/><path fill="#403F3D" d="M23.756 17.203c-.363.37-.572.946-.572 1.692v26.604c0 .746.21 1.322.572 1.692l.09.081 15.29-14.902v-.352l-15.29-14.902-.09.087ZM46.078 37.34l-5.092-4.97v-.352l5.098-4.97.114.065 6.036 3.349c1.723.95 1.723 2.514 0 3.47l-6.036 3.343-.12.065ZM45.273 38.2l-5.211-5.08-15.38 14.997c.572.586 1.505.657 2.566.07l18.025-9.986ZM45.273 26.188 27.248 16.2c-1.061-.58-1.994-.51-2.566.077l15.38 14.99 5.211-5.08ZM65.977 23H64.57l2.56-7.273h1.627L71.321 23h-1.406l-1.943-5.781h-.057L65.976 23Zm.046-2.852h3.835v1.059h-3.835v-1.059Zm10.388-2.602L74.468 23h-1.42l-1.943-5.454h1.37l1.255 4.051h.056l1.257-4.052h1.368Zm2.302 5.564c-.345 0-.656-.061-.933-.185a1.522 1.522 0 0 1-.654-.554c-.159-.243-.238-.544-.238-.901 0-.308.057-.563.17-.764.114-.201.27-.362.466-.483.196-.12.418-.212.664-.273.248-.064.505-.11.77-.139.32-.033.58-.063.778-.089.2-.028.343-.07.433-.128.093-.059.139-.15.139-.273V19.3c0-.268-.08-.475-.238-.622-.159-.146-.387-.22-.685-.22-.315 0-.565.069-.75.206-.182.137-.305.3-.369.487l-1.2-.17c.094-.332.25-.61.468-.832a2.04 2.04 0 0 1 .8-.504c.314-.114.662-.17 1.044-.17.262 0 .524.03.784.092.26.061.499.163.714.305.216.14.388.33.519.572.132.241.199.543.199.905V23h-1.236v-.75h-.043a1.569 1.569 0 0 1-.86.743c-.21.078-.457.117-.742.117Zm.334-.944c.258 0 .482-.051.672-.153a1.13 1.13 0 0 0 .436-.412 1.05 1.05 0 0 0 .156-.558v-.642a.605.605 0 0 1-.205.092 2.92 2.92 0 0 1-.32.075c-.118.02-.236.04-.352.056l-.302.043a2.248 2.248 0 0 0-.514.128.856.856 0 0 0-.359.248.608.608 0 0 0-.131.405c0 .237.086.416.259.536.173.121.393.181.66.181Zm3.84.834v-5.454h1.285V23h-1.286Zm.645-6.229a.75.75 0 0 1-.525-.202.653.653 0 0 1-.22-.494c0-.194.073-.358.22-.493a.743.743 0 0 1 .525-.206c.206 0 .382.068.526.206.147.135.22.3.22.493a.652.652 0 0 1-.22.494.742.742 0 0 1-.526.202Zm3.247-1.044V23h-1.285v-7.273h1.285Zm2.892 7.383c-.346 0-.657-.061-.934-.185a1.524 1.524 0 0 1-.654-.554c-.158-.243-.238-.544-.238-.901 0-.308.057-.563.17-.764a1.32 1.32 0 0 1 .466-.483c.196-.12.418-.212.664-.273.249-.064.505-.11.77-.139.32-.033.58-.063.778-.089.2-.028.344-.07.433-.128.093-.059.139-.15.139-.273V19.3c0-.268-.08-.475-.238-.622-.159-.146-.387-.22-.685-.22-.315 0-.565.069-.75.206-.182.137-.305.3-.369.487l-1.2-.17c.095-.332.25-.61.469-.832a2.04 2.04 0 0 1 .799-.504c.314-.114.663-.17 1.044-.17.262 0 .524.03.784.092.26.061.499.163.714.305.216.14.388.33.519.572.132.241.198.543.198.905V23h-1.235v-.75h-.043a1.569 1.569 0 0 1-.33.427c-.14.13-.316.235-.53.316-.21.078-.457.117-.742.117Zm.333-.944c.258 0 .482-.051.671-.153a1.13 1.13 0 0 0 .437-.412 1.05 1.05 0 0 0 .157-.558v-.642a.606.606 0 0 1-.206.092 2.914 2.914 0 0 1-.32.075c-.118.02-.236.04-.352.056l-.301.043a2.246 2.246 0 0 0-.515.128.855.855 0 0 0-.359.248.608.608 0 0 0-.131.405c0 .237.086.416.259.536.173.121.393.181.66.181ZM93.9 23v-7.273h1.285v2.72h.054c.066-.132.16-.273.28-.422.121-.152.284-.28.49-.387.206-.11.47-.164.789-.164.421 0 .801.108 1.14.324.34.213.61.529.81.948.2.416.301.928.301 1.534 0 .599-.098 1.108-.295 1.527-.196.419-.464.739-.802.959-.339.22-.722.33-1.15.33-.313 0-.573-.052-.779-.156a1.58 1.58 0 0 1-.497-.377 2.438 2.438 0 0 1-.287-.422h-.075V23H93.9Zm1.26-2.727c0 .352.05.661.15.927.102.265.247.472.436.621.192.147.424.22.697.22.284 0 .522-.076.713-.227.192-.154.337-.363.434-.629.099-.267.149-.571.149-.912 0-.339-.049-.64-.146-.902a1.354 1.354 0 0 0-.433-.618c-.192-.15-.431-.224-.717-.224a1.13 1.13 0 0 0-.7.217 1.332 1.332 0 0 0-.437.607 2.63 2.63 0 0 0-.145.92Zm6.267-4.546V23h-1.285v-7.273h1.285Zm3.737 7.38c-.547 0-1.019-.114-1.417-.341a2.309 2.309 0 0 1-.912-.973c-.213-.422-.32-.918-.32-1.488 0-.561.107-1.054.32-1.478.215-.426.516-.757.902-.994.385-.239.839-.359 1.36-.359.336 0 .653.055.951.164.301.106.566.272.796.497.232.225.414.511.547.86.132.345.199.757.199 1.235v.394h-4.471v-.866h3.238a1.38 1.38 0 0 0-.159-.657 1.167 1.167 0 0 0-.437-.458 1.229 1.229 0 0 0-.647-.167c-.262 0-.493.064-.692.192a1.318 1.318 0 0 0-.465.497 1.425 1.425 0 0 0-.167.67v.757c0 .318.058.59.174.817.116.225.278.398.486.519.209.118.453.177.732.177.187 0 .356-.026.508-.078a1.13 1.13 0 0 0 .394-.238.996.996 0 0 0 .252-.387l1.2.135c-.075.317-.22.594-.433.83a2.116 2.116 0 0 1-.81.548 3.1 3.1 0 0 1-1.129.192Zm8.373 0c-.533 0-.994-.118-1.385-.352a2.382 2.382 0 0 1-.909-.984c-.213-.421-.32-.913-.32-1.477 0-.563.107-1.057.32-1.48.215-.425.518-.754.909-.988.391-.234.852-.352 1.385-.352s.994.118 1.385.352c.39.234.692.563.905.987.216.424.323.918.323 1.481 0 .564-.107 1.056-.323 1.477-.213.422-.515.75-.905.984-.391.234-.852.352-1.385.352Zm.007-1.03c.289 0 .53-.08.724-.238.195-.161.339-.377.434-.646.097-.27.145-.571.145-.902 0-.334-.048-.636-.145-.906a1.43 1.43 0 0 0-.434-.65 1.095 1.095 0 0 0-.724-.241c-.296 0-.542.08-.739.241a1.457 1.457 0 0 0-.436.65c-.095.27-.143.572-.143.905 0 .332.048.633.143.902.097.27.242.486.436.647.197.158.443.238.739.238Zm4.983-2.273V23h-1.285v-5.454h1.228v.926h.064c.126-.305.326-.548.6-.728.277-.18.619-.27 1.027-.27.376 0 .704.08.983.242.282.16.5.394.654.7.156.305.233.675.23 1.111V23h-1.285v-3.274c0-.365-.095-.65-.284-.856-.187-.206-.446-.309-.778-.309-.225 0-.425.05-.6.15a1.03 1.03 0 0 0-.408.422 1.428 1.428 0 0 0-.146.671ZM72.943 38.08a3.01 3.01 0 0 0-.392-.824 2.532 2.532 0 0 0-.59-.631 2.382 2.382 0 0 0-.785-.392 3.267 3.267 0 0 0-.966-.136 3.02 3.02 0 0 0-1.67.471c-.489.315-.873.777-1.154 1.387-.276.606-.414 1.344-.414 2.215 0 .88.138 1.624.414 2.233.277.61.661 1.074 1.154 1.392.492.315 1.064.472 1.716.472.59 0 1.102-.114 1.534-.34.435-.228.77-.55 1.005-.967.235-.42.353-.913.353-1.477l.477.074h-3.16v-1.648h4.722v1.398c0 .996-.212 1.858-.636 2.585a4.347 4.347 0 0 1-1.75 1.682c-.742.39-1.595.585-2.557.585-1.072 0-2.013-.24-2.823-.721-.807-.485-1.438-1.173-1.893-2.063-.45-.894-.676-1.955-.676-3.182 0-.94.133-1.778.398-2.517.269-.739.644-1.365 1.125-1.88a4.788 4.788 0 0 1 1.693-1.182 5.392 5.392 0 0 1 2.114-.41c.644 0 1.244.095 1.801.285.557.185 1.051.45 1.483.795.436.345.794.754 1.074 1.227.28.474.464.997.55 1.569h-2.147Zm7.999 8.09c-.852 0-1.591-.187-2.216-.562a3.82 3.82 0 0 1-1.455-1.574c-.34-.674-.511-1.462-.511-2.364 0-.901.17-1.69.511-2.369a3.812 3.812 0 0 1 1.455-1.58c.625-.374 1.364-.562 2.216-.562.852 0 1.59.188 2.216.563a3.774 3.774 0 0 1 1.448 1.58c.345.677.518 1.467.518 2.368 0 .902-.173 1.69-.517 2.364a3.782 3.782 0 0 1-1.45 1.574c-.624.375-1.363.563-2.215.563Zm.011-1.647c.462 0 .849-.127 1.16-.381.31-.258.54-.602.692-1.034.156-.432.233-.913.233-1.443 0-.534-.077-1.017-.233-1.45-.151-.435-.382-.781-.693-1.039-.31-.257-.697-.386-1.159-.386-.473 0-.867.129-1.182.386-.31.258-.543.604-.699 1.04a4.356 4.356 0 0 0-.227 1.449c0 .53.076 1.011.227 1.443.156.432.389.777.7 1.034.314.254.708.38 1.181.38Zm9.723 1.647c-.852 0-1.59-.187-2.216-.562a3.82 3.82 0 0 1-1.454-1.574c-.341-.674-.512-1.462-.512-2.364 0-.901.17-1.69.512-2.369a3.812 3.812 0 0 1 1.454-1.58c.625-.374 1.364-.562 2.216-.562.852 0 1.591.188 2.216.563a3.775 3.775 0 0 1 1.449 1.58c.345.677.517 1.467.517 2.368 0 .902-.172 1.69-.517 2.364a3.783 3.783 0 0 1-1.449 1.574c-.625.375-1.364.563-2.216.563Zm.011-1.647c.463 0 .849-.127 1.16-.381.31-.258.541-.602.693-1.034.155-.432.233-.913.233-1.443 0-.534-.078-1.017-.233-1.45-.152-.435-.383-.781-.693-1.039-.311-.257-.697-.386-1.16-.386-.473 0-.867.129-1.181.386-.31.258-.544.604-.7 1.04a4.356 4.356 0 0 0-.227 1.449c0 .53.076 1.011.228 1.443.155.432.388.777.699 1.034.314.254.708.38 1.181.38Zm9.712 4.931c-.739 0-1.373-.1-1.903-.3-.53-.198-.957-.463-1.279-.796a2.755 2.755 0 0 1-.67-1.108l1.852-.449c.084.17.205.34.364.506.159.17.373.31.642.42.273.114.615.17 1.028.17.584 0 1.067-.141 1.449-.425.383-.28.574-.743.574-1.387v-1.653h-.102c-.106.212-.262.43-.466.653a2.388 2.388 0 0 1-.801.563c-.33.151-.745.227-1.245.227-.67 0-1.278-.157-1.823-.472-.542-.318-.974-.791-1.296-1.42-.318-.633-.477-1.424-.477-2.375 0-.958.159-1.767.477-2.426.322-.663.756-1.165 1.301-1.506a3.344 3.344 0 0 1 1.824-.517c.511 0 .932.087 1.261.261.334.17.599.377.796.62.197.238.346.464.449.676h.113v-1.443h2.029v8.869c0 .746-.178 1.364-.534 1.852-.356.489-.843.855-1.461 1.097-.617.242-1.318.364-2.102.364Zm.017-5.193c.436 0 .807-.106 1.114-.318.307-.212.54-.517.699-.915.159-.397.238-.875.238-1.431 0-.55-.079-1.03-.238-1.444-.156-.413-.387-.733-.693-.96-.304-.23-.677-.346-1.12-.346-.458 0-.84.119-1.147.358-.307.238-.538.566-.694.983a3.983 3.983 0 0 0-.233 1.409c0 .534.078 1.002.233 1.403.16.398.392.708.7.932.31.22.69.33 1.141.33Zm8.245-9.897V46h-2.057V34.364h2.057Zm5.978 11.806c-.875 0-1.63-.181-2.267-.545a3.698 3.698 0 0 1-1.46-1.557c-.341-.674-.511-1.468-.511-2.38 0-.898.17-1.686.511-2.364a3.87 3.87 0 0 1 1.443-1.591c.618-.383 1.343-.574 2.176-.574.538 0 1.046.087 1.523.261.481.17.905.436 1.273.796.371.36.663.818.875 1.375.212.553.318 1.212.318 1.977v.63h-7.154v-1.386h5.182a2.21 2.21 0 0 0-.255-1.05c-.167-.311-.4-.556-.699-.734a1.966 1.966 0 0 0-1.034-.267c-.421 0-.79.103-1.108.307-.318.2-.567.466-.745.796a2.295 2.295 0 0 0-.267 1.074v1.21c0 .507.093.943.279 1.306.185.36.445.637.778.83.333.19.724.284 1.171.284.299 0 .57-.041.812-.125.243-.087.453-.214.631-.38.178-.167.312-.374.403-.62l1.921.216c-.122.508-.353.95-.694 1.33a3.373 3.373 0 0 1-1.295.875c-.526.204-1.129.306-1.807.306Zm9.681-.17V34.364h4.363c.894 0 1.644.166 2.25.5.61.333 1.07.791 1.381 1.375.314.58.472 1.238.472 1.977 0 .746-.158 1.409-.472 1.989a3.365 3.365 0 0 1-1.392 1.369c-.614.33-1.369.494-2.267.494h-2.892v-1.733h2.608c.522 0 .95-.09 1.284-.273a1.72 1.72 0 0 0 .738-.75c.163-.318.245-.683.245-1.096 0-.413-.082-.777-.245-1.091a1.66 1.66 0 0 0-.744-.733c-.333-.178-.763-.267-1.29-.267h-1.931V46h-2.108Zm12.262-11.636V46h-2.056V34.364h2.056Zm4.627 11.812a3.647 3.647 0 0 1-1.495-.295 2.442 2.442 0 0 1-1.045-.887c-.254-.39-.381-.87-.381-1.443 0-.492.091-.9.273-1.221.182-.322.43-.58.744-.773a3.764 3.764 0 0 1 1.063-.438 8.657 8.657 0 0 1 1.233-.221c.511-.053.926-.1 1.244-.142.318-.046.549-.114.693-.205.148-.095.222-.24.222-.437v-.034c0-.428-.127-.76-.381-.995s-.619-.352-1.096-.352c-.504 0-.904.11-1.199.33-.292.22-.489.479-.591.778l-1.921-.273c.152-.53.402-.973.75-1.33.349-.36.775-.628 1.279-.806a4.888 4.888 0 0 1 1.67-.273c.421 0 .839.05 1.256.148.417.098.797.261 1.142.488.345.224.621.529.83.915.212.387.318.87.318 1.45V46h-1.978v-1.199h-.068c-.125.243-.301.47-.528.682a2.548 2.548 0 0 1-.847.506 3.411 3.411 0 0 1-1.187.187Zm.534-1.511c.413 0 .771-.082 1.074-.245.303-.166.536-.386.699-.659.166-.272.25-.57.25-.892v-1.028a.979.979 0 0 1-.33.148 4.64 4.64 0 0 1-.511.119c-.19.034-.377.064-.563.09l-.483.069a3.6 3.6 0 0 0-.824.205 1.368 1.368 0 0 0-.573.397c-.141.167-.211.383-.211.648 0 .379.139.665.415.858.277.193.629.29 1.057.29Zm7.108 4.608c-.28 0-.54-.023-.779-.069a2.887 2.887 0 0 1-.562-.147l.477-1.602c.299.087.567.128.801.125a.984.984 0 0 0 .62-.222c.181-.14.335-.375.46-.705l.176-.471-3.165-8.91h2.182l2.011 6.592h.091l2.017-6.591h2.188l-3.494 9.784a3.92 3.92 0 0 1-.648 1.187 2.635 2.635 0 0 1-.989.762c-.386.178-.848.267-1.386.267Z"/></svg>