<svg xmlns="http://www.w3.org/2000/svg" width="200" height="64" fill="none"><rect width="200" height="64" fill="#E1D4C9" rx="32"/><path fill="#403F3D" d="M79.413 26.364h2.58l3.454 8.431h.137l3.454-8.431h2.58V38h-2.023v-7.994h-.108l-3.216 7.96H84.76l-3.216-7.977h-.108V38h-2.023V26.364ZM97.686 38.17c-.875 0-1.63-.181-2.267-.545a3.695 3.695 0 0 1-1.46-1.557c-.341-.674-.512-1.468-.512-2.38 0-.898.17-1.686.512-2.364a3.866 3.866 0 0 1 1.443-1.591c.617-.383 1.343-.574 2.176-.574.538 0 1.046.087 1.523.262.48.17.905.435 1.273.795.371.36.662.818.875 1.375.212.553.318 1.212.318 1.977v.63h-7.154v-1.386h5.182a2.212 2.212 0 0 0-.255-1.05c-.167-.311-.4-.556-.7-.734a1.965 1.965 0 0 0-1.034-.267c-.42 0-.79.103-1.107.307-.319.2-.567.466-.745.796a2.289 2.289 0 0 0-.267 1.073v1.21c0 .508.093.944.279 1.308.185.36.445.636.778.83.333.189.724.283 1.17.283.3 0 .57-.041.813-.125.242-.087.453-.214.63-.38.179-.167.313-.374.404-.62l1.921.216c-.122.508-.353.95-.694 1.33a3.38 3.38 0 0 1-1.295.875c-.527.204-1.129.306-1.807.306Zm7.678-5.284V38h-2.057v-8.727h1.966v1.483h.102c.201-.489.521-.877.96-1.165.443-.288.991-.432 1.642-.432.603 0 1.127.129 1.574.387.451.257.799.63 1.046 1.119.25.488.373 1.081.369 1.778V38h-2.057v-5.239c0-.583-.151-1.04-.454-1.369-.3-.33-.714-.494-1.245-.494-.36 0-.68.08-.96.238a1.65 1.65 0 0 0-.653.677c-.156.295-.233.653-.233 1.073Zm13.255 1.444v-5.057h2.057V38h-1.994v-1.551h-.091a2.624 2.624 0 0 1-.972 1.199c-.447.31-.998.466-1.653.466-.572 0-1.078-.127-1.517-.381a2.643 2.643 0 0 1-1.023-1.12c-.246-.492-.369-1.087-.369-1.783v-5.557h2.057v5.238c0 .553.151.993.454 1.319.303.325.701.488 1.193.488.303 0 .597-.074.881-.221.284-.148.517-.368.699-.66.186-.295.278-.664.278-1.107Z"/></svg>