<svg width="200" height="64" xmlns="http://www.w3.org/2000/svg">

 <g>
  <title>background</title>
  <rect fill="none" id="canvas_background" height="402" width="582" y="-1" x="-1"/>
 </g>
 <g>
  <title>Layer 1</title>
  <rect id="svg_1" rx="32" fill="#E1D4C9" height="64" width="200"/>
  <path id="svg_2" d="m65.413,26.364l2.58,0l3.454,8.431l0.137,0l3.454,-8.431l2.58,0l0,11.636l-2.023,0l0,-7.994l-0.108,0l-3.216,7.96l-1.511,0l-3.216,-7.977l-0.108,0l0,8.011l-2.023,0l0,-11.636zm18.273,11.806c-0.875,0 -1.63,-0.181 -2.267,-0.545a3.695,3.695 0 0 1 -1.46,-1.557c-0.341,-0.674 -0.512,-1.468 -0.512,-2.38c0,-0.898 0.17,-1.686 0.512,-2.364a3.866,3.866 0 0 1 1.443,-1.591c0.617,-0.383 1.343,-0.574 2.176,-0.574c0.538,0 1.046,0.087 1.523,0.262c0.48,0.17 0.905,0.435 1.273,0.795c0.37,0.36 0.663,0.818 0.875,1.375c0.212,0.553 0.318,1.212 0.318,1.977l0,0.63l-7.154,0l0,-1.386l5.182,0a2.212,2.212 0 0 0 -0.255,-1.05c-0.167,-0.311 -0.4,-0.556 -0.7,-0.734a1.965,1.965 0 0 0 -1.034,-0.267c-0.42,0 -0.79,0.103 -1.107,0.307c-0.319,0.2 -0.567,0.466 -0.745,0.796a2.289,2.289 0 0 0 -0.267,1.073l0,1.21c0,0.508 0.093,0.944 0.279,1.308c0.185,0.36 0.445,0.636 0.778,0.83c0.333,0.189 0.724,0.283 1.17,0.283c0.3,0 0.57,-0.041 0.813,-0.125c0.242,-0.087 0.453,-0.214 0.63,-0.38c0.179,-0.167 0.313,-0.374 0.404,-0.62l1.92,0.216c-0.12,0.508 -0.352,0.95 -0.693,1.33a3.38,3.38 0 0 1 -1.295,0.875c-0.527,0.204 -1.129,0.306 -1.807,0.306zm7.678,-5.284l0,5.114l-2.057,0l0,-8.727l1.966,0l0,1.483l0.102,0c0.2,-0.489 0.52,-0.877 0.96,-1.165c0.443,-0.288 0.99,-0.432 1.642,-0.432c0.602,0 1.127,0.129 1.574,0.387c0.45,0.257 0.8,0.63 1.046,1.119c0.25,0.488 0.373,1.081 0.369,1.778l0,5.557l-2.057,0l0,-5.239c0,-0.583 -0.151,-1.04 -0.455,-1.369c-0.299,-0.33 -0.713,-0.494 -1.244,-0.494c-0.36,0 -0.68,0.08 -0.96,0.238c-0.276,0.156 -0.494,0.381 -0.653,0.677c-0.156,0.295 -0.233,0.653 -0.233,1.073zm13.255,1.444l0,-5.057l2.057,0l0,8.727l-1.994,0l0,-1.551l-0.091,0a2.624,2.624 0 0 1 -0.972,1.199c-0.447,0.31 -0.998,0.466 -1.653,0.466c-0.572,0 -1.078,-0.127 -1.517,-0.381a2.644,2.644 0 0 1 -1.023,-1.12c-0.246,-0.492 -0.37,-1.087 -0.37,-1.783l0,-5.557l2.058,0l0,5.238c0,0.553 0.151,0.993 0.454,1.319c0.303,0.325 0.701,0.488 1.193,0.488c0.303,0 0.597,-0.074 0.881,-0.221c0.284,-0.148 0.517,-0.368 0.699,-0.66c0.186,-0.295 0.278,-0.664 0.278,-1.107z" fill="#403F3D"/>
  <path fill="#403f3d" id="svg_3" d="m130.29655,31.767l0,1.9a5.833,5.833 0 0 1 -11.667,0l0,-1.9a0.6,0.6 0 0 1 0.6,-0.6l10.467,0a0.6,0.6 0 0 1 0.6,0.6zm-4.167,-2.267c0,-0.833 0.596,-1.667 1.786,-1.667l0.13055,0a2.381,2.381 0 0 0 2.25045,-2.38l0,-0.2749m-7.499,4.3219l0,-0.417a2.5,2.5 0 0 1 2.5,-2.5l0,0c0.921,0 1.667,-0.746 1.667,-1.666l0,-0.417" stroke-width="1.5" stroke-linejoin="round" stroke-linecap="round" stroke="#403f3d"/>
  <path fill="none" id="svg_4" d="m129.334,31.167l2.083,0a2.084,2.084 0 1 1 0,4.166l-1.25,0" stroke-width="1.5" stroke-linejoin="round" stroke-linecap="round" stroke="#403F3D"/>
 </g>
</svg>